<?xml version="1.0" encoding="utf-8"?>
<!-- Generator: Adobe Illustrator 27.4.0, SVG Export Plug-In . SVG Version: 6.00 Build 0)  -->
<svg version="1.1" baseProfile="tiny" id="Layer_1" xmlns="http://www.w3.org/2000/svg" xmlns:xlink="http://www.w3.org/1999/xlink"
	 x="0px" y="0px" viewBox="0 0 300 131.12" overflow="visible" xml:space="preserve">
<path fill="#FFFFFF" stroke="#009BE9" stroke-width="4" stroke-linecap="round" stroke-linejoin="round" stroke-miterlimit="10" d="
	M289.232,127.857h-74.367c-3.485,0-6.311-2.826-6.311-6.311V55.24c0-3.485,2.826-6.311,6.311-6.311h74.367
	c3.485,0,6.311,2.826,6.311,6.311v66.307C295.543,125.032,292.717,127.857,289.232,127.857z"/>
<line fill="#009BFF" stroke="#009BE9" stroke-width="4" stroke-linecap="round" stroke-linejoin="round" stroke-miterlimit="10" x1="208.554" y1="75.18" x2="293.766" y2="75.18"/>
<path fill="#C6F2FF" d="M217.051,88.259v28.084c0,1.684,1.561,3.049,3.488,3.049h62.137c1.926,0,3.488-1.365,3.488-3.049V88.259
	c0-1.684-1.561-3.049-3.488-3.049h-62.137C218.612,85.21,217.051,86.575,217.051,88.259z"/>
<path fill="#FFFFFF" stroke="#009BE9" stroke-width="4" stroke-linecap="round" stroke-linejoin="round" stroke-miterlimit="10" d="
	M187.537,127.857h-74.367c-3.485,0-6.311-2.826-6.311-6.311V55.24c0-3.485,2.826-6.311,6.311-6.311h74.367
	c3.485,0,6.311,2.826,6.311,6.311v66.307C193.848,125.032,191.023,127.857,187.537,127.857z"/>
<line fill="#009BFF" stroke="#009BE9" stroke-width="4" stroke-linecap="round" stroke-linejoin="round" stroke-miterlimit="10" x1="106.86" y1="75.18" x2="192.071" y2="75.18"/>
<path fill="#C6F2FF" d="M115.356,88.259v28.084c0,1.684,1.561,3.049,3.488,3.049h62.137c1.926,0,3.488-1.365,3.488-3.049V88.259
	c0-1.684-1.561-3.049-3.488-3.049h-62.137C116.917,85.21,115.356,86.575,115.356,88.259z"/>
<path fill="#FFFFFF" stroke="#009BE9" stroke-width="4" stroke-linecap="round" stroke-linejoin="round" stroke-miterlimit="10" d="
	M85.842,127.857H11.476c-3.485,0-6.311-2.826-6.311-6.311V55.24c0-3.485,2.826-6.311,6.311-6.311h74.367
	c3.485,0,6.311,2.826,6.311,6.311v66.307C92.153,125.032,89.328,127.857,85.842,127.857z"/>
<line fill="#009BFF" stroke="#009BE9" stroke-width="4" stroke-linecap="round" stroke-linejoin="round" stroke-miterlimit="10" x1="5.165" y1="75.18" x2="90.376" y2="75.18"/>
<path fill="#C6F2FF" d="M13.661,88.259v28.084c0,1.684,1.561,3.049,3.488,3.049h62.137c1.926,0,3.488-1.365,3.488-3.049V88.259
	c0-1.684-1.561-3.049-3.488-3.049H17.149C15.223,85.21,13.661,86.575,13.661,88.259z"/>
<g>
	<path fill="#FFFFFF" d="M43.372,11.513h-4.366V2.948h13.962v30.106h-9.596V11.513z"/>
</g>
<g>
	<path fill="#FFFFFF" d="M138.191,25.763c5.806-4.364,11.943-9.43,11.943-13.756c0-1.317-0.617-2.059-1.565-2.059
		c-0.988,0-1.811,0.988-1.648,3.418h-8.853c0.288-7.988,5.477-11.078,11.118-11.078c7.496,0,10.175,4.241,10.175,9.019
		c0,5.972-4.532,10.955-9.309,13.962h9.432v7.373h-21.293V25.763z"/>
</g>
<g>
	<path fill="#FFFFFF" d="M250.249,2.288c6.671,0,10.213,3.707,10.213,8.402c0,4.284-2.636,6.137-4.407,6.714v0.163
		c2.842,1.071,4.943,3.09,4.943,6.879c0,5.312-3.83,8.896-10.172,8.896c-6.754,0-11.409-2.965-11.532-10.544h8.896
		c-0.125,1.936,0.494,3.007,2.225,3.007c0.988,0,1.728-0.782,1.728-2.019c0-1.482-0.823-2.347-3.336-2.347h-1.525v-7.371h1.485
		c0.74,0.04,2.799,0.08,2.799-2.225c0-1.482-0.74-2.019-1.523-2.019c-1.319,0-1.525,1.359-1.525,2.553h-8.896
		C239.788,5.829,243.535,2.288,250.249,2.288z"/>
</g>
</svg>
