<svg width="28" height="27" viewBox="0 0 28 27" fill="none" xmlns="http://www.w3.org/2000/svg">
<path d="M22.8226 0H5.38113C2.52173 0 0.203735 2.2516 0.203735 5.02908V21.9709C0.203735 24.7484 2.52173 27 5.38113 27H22.8226C25.682 27 28 24.7484 28 21.9709V5.02908C28 2.2516 25.682 0 22.8226 0Z" fill="url(#paint0_linear_44_2)"/>
<path d="M19.0098 20.3419C19.7007 20.289 21.2688 19.4647 21.587 18.5876C21.9052 17.7355 21.9052 16.9864 21.7991 16.8332C21.7189 16.7051 21.4551 16.6021 21.0825 16.4211C20.684 16.2401 18.8263 15.3379 18.4794 15.2098C18.1068 15.1067 17.8688 15.0288 17.6022 15.4158C17.3614 15.7778 16.6189 16.6021 16.4067 16.836C16.1688 17.095 15.9567 17.12 15.584 16.939C15.1855 16.758 13.9642 16.371 12.5022 15.1067C11.3583 14.1265 10.5901 12.9403 10.375 12.5783C10.1629 12.1912 10.3492 12.0102 10.5356 11.8041C10.7219 11.6482 10.9341 11.392 11.1204 11.1581C11.1749 11.108 11.2265 11.0551 11.2523 11.0022C11.3584 10.8462 11.4128 10.7181 11.4931 10.5622C11.625 10.306 11.5734 10.0972 11.4673 9.91615C11.387 9.73515 10.6187 7.90285 10.2976 7.18162C9.97943 6.43255 9.66123 6.56343 9.44909 6.56343C9.21114 6.56343 8.97033 6.53837 8.70658 6.53837C8.44284 6.53837 8.04148 6.61634 7.69747 7.0034C7.32479 7.36541 6.34149 8.24257 6.34149 10.0749C6.34149 10.487 6.42176 10.927 6.5565 11.314C6.92631 12.6312 7.77776 13.6866 7.90963 13.8676C8.09597 14.1265 10.5384 17.9443 14.4172 19.4146C18.3217 20.8849 18.3218 20.3948 19.0126 20.3447L19.0098 20.3419Z" fill="white"/>
<defs>
<linearGradient id="paint0_linear_44_2" x1="1.72026" y1="25.5269" x2="25.7639" y2="0.774167" gradientUnits="userSpaceOnUse">
<stop stop-color="#1A1A1A"/>
<stop offset="1" stop-color="#4D4D4D"/>
</linearGradient>
</defs>
</svg>
